<svg width="1160" height="776" viewBox="0 0 1160 776" fill="none" xmlns="http://www.w3.org/2000/svg">
<g clip-path="url(#clip0_1_3)" filter="url(#filter0_d_1_3)">
<mask id="mask0_1_3" style="mask-type:luminance" maskUnits="userSpaceOnUse" x="4" y="0" width="1152" height="768">
<path d="M1156 0H4V768H1156V0Z" fill="white"/>
</mask>
<g mask="url(#mask0_1_3)">
<path d="M1156 -0.000366211H4.00043V767.998H1156V-0.000366211Z" fill="#2A343C"/>
<path fill-rule="evenodd" clip-rule="evenodd" d="M342.612 512.546C342.612 507.644 338.631 503.664 333.73 503.664H94.6698C89.7683 503.664 85.7889 507.644 85.7889 512.546V551.733C85.7889 556.635 89.7683 560.614 94.6698 560.614H333.73C338.631 560.614 342.612 556.635 342.612 551.733V512.546Z" fill="#E4E9EC"/>
<path d="M153.676 96.3804V157.499H142.494L115.844 118.995H115.424V157.499H102.477V96.3804H113.827L140.225 134.8H140.729V96.3804H153.676Z" fill="white"/>
<path d="M164.023 157.499V111.681H176.802V157.499H164.023ZM170.497 105.712C168.563 105.712 166.966 105.124 165.621 103.863C164.275 102.602 163.603 101.088 163.603 99.3229C163.603 97.5574 164.275 96.0442 165.621 94.7831C166.966 93.5221 168.563 92.8495 170.413 92.8495C172.346 92.8495 173.943 93.5221 175.289 94.7831C176.634 96.0442 177.306 97.5574 177.306 99.3229C177.306 101.088 176.634 102.602 175.289 103.863C173.943 105.124 172.346 105.712 170.497 105.712Z" fill="white"/>
<path d="M207.572 175.321C203.453 175.321 199.922 174.817 196.98 173.64C194.037 172.547 191.767 171.034 190.002 169.184C188.236 167.251 187.143 165.149 186.639 162.879L198.409 161.282C198.745 162.122 199.334 162.879 200.09 163.636C200.847 164.392 201.856 164.981 203.201 165.485C204.462 165.99 206.059 166.242 207.909 166.242C210.683 166.242 212.953 165.569 214.718 164.224C216.568 162.963 217.408 160.777 217.408 157.751V149.344H216.904C216.315 150.689 215.475 151.866 214.382 152.959C213.289 154.136 211.86 155.061 210.094 155.733C208.329 156.49 206.227 156.826 203.789 156.826C200.342 156.826 197.232 156.069 194.457 154.472C191.599 152.875 189.413 150.353 187.732 147.074C186.051 143.711 185.21 139.592 185.21 134.464C185.21 129.251 186.051 124.964 187.732 121.433C189.413 117.986 191.683 115.38 194.542 113.615C197.316 111.933 200.426 111.008 203.789 111.008C206.395 111.008 208.497 111.513 210.263 112.354C211.944 113.194 213.373 114.287 214.466 115.548C215.475 116.893 216.315 118.07 216.904 119.331H217.408V111.681H230.019V157.919C230.019 161.786 229.01 164.981 227.16 167.503C225.227 170.109 222.621 172.043 219.174 173.388C215.811 174.733 211.944 175.321 207.572 175.321ZM207.824 147.326C209.926 147.326 211.608 146.738 213.037 145.729C214.466 144.72 215.559 143.291 216.315 141.357C217.072 139.424 217.492 137.07 217.492 134.38C217.492 131.773 217.156 129.42 216.4 127.402C215.643 125.468 214.466 123.871 213.037 122.778C211.608 121.685 209.926 121.181 207.824 121.181C205.723 121.181 203.957 121.769 202.528 122.862C201.099 123.955 200.09 125.552 199.334 127.486C198.577 129.504 198.241 131.773 198.241 134.38C198.241 137.07 198.577 139.34 199.334 141.273C200.09 143.207 201.183 144.636 202.612 145.729C204.041 146.738 205.723 147.326 207.824 147.326Z" fill="white"/>
<path d="M252.9 131.017V157.499H240.121V96.3804H252.479V119.752H253.068C254.077 117.061 255.758 114.876 258.028 113.362C260.382 111.849 263.24 111.008 266.771 111.008C269.966 111.008 272.74 111.765 275.094 113.11C277.448 114.539 279.298 116.473 280.643 119.079C281.988 121.601 282.66 124.712 282.576 128.327V157.499H269.882V130.597C269.882 127.738 269.209 125.552 267.78 123.955C266.351 122.442 264.333 121.601 261.727 121.601C259.962 121.601 258.448 122.021 257.103 122.694C255.842 123.451 254.749 124.544 253.993 125.889C253.236 127.318 252.9 128.999 252.9 131.017Z" fill="white"/>
<path d="M316.985 111.681V121.181H289.411V111.681H316.985ZM295.716 100.668H308.41V143.375C308.41 144.552 308.578 145.477 308.915 146.149C309.335 146.822 309.84 147.242 310.428 147.494C311.101 147.747 311.857 147.915 312.698 147.915C313.286 147.915 313.875 147.831 314.463 147.747C315.052 147.578 315.556 147.494 315.893 147.494L317.826 156.91C317.238 157.162 316.313 157.33 315.136 157.667C314.043 157.919 312.614 158.087 310.932 158.087C307.906 158.255 305.216 157.835 302.946 156.91C300.592 155.985 298.826 154.472 297.565 152.539C296.304 150.605 295.632 148.083 295.716 145.056V100.668Z" fill="white"/>
<path d="M338.915 96.3804H326.22V157.499H338.915V96.3804Z" fill="white"/>
<path d="M356.992 174.565C355.395 174.565 353.881 174.481 352.452 174.228C351.023 173.976 349.846 173.64 349.005 173.304L351.864 163.804C354.049 164.476 355.983 164.644 357.496 164.308C359.094 164.056 360.271 162.795 361.195 160.777L361.952 158.844L345.474 111.681H358.841L368.341 145.309H368.846L378.429 111.681H391.881L374.058 162.459C373.217 164.897 372.04 166.998 370.611 168.848C369.098 170.697 367.248 172.127 365.062 173.135C362.793 174.144 360.102 174.565 356.992 174.565Z" fill="white"/>
<path fill-rule="evenodd" clip-rule="evenodd" d="M612.631 322.7L675.225 351.498L614.63 384.295L612.631 322.7Z" fill="white"/>
<path fill-rule="evenodd" clip-rule="evenodd" d="M385.693 379.067C392.141 373.242 420.765 348.419 449.164 332.534C466.96 322.58 484.465 315.737 495.346 320.695C497.567 321.699 498.458 323.743 498.939 326.17C499.51 329.052 499.4 332.454 499.1 336.105C498.118 348.07 495.194 362.246 498.339 371.997C500.312 378.116 504.308 382.818 511.476 385.251C517.452 387.282 523.19 387.163 528.772 385.851C539.493 383.331 549.543 375.539 559.671 372.043C570.613 368.259 581.456 365.463 592.47 363.546C603.451 361.635 614.6 360.626 626.187 360.406C630.22 360.275 633.389 356.894 633.258 352.86C633.127 348.827 629.746 345.658 625.712 345.789C613.395 346.355 601.566 347.75 589.942 350.097C578.298 352.448 566.86 355.725 555.345 360.057C546.87 363.252 538.557 369.587 529.746 373.101C525.061 374.97 520.212 375.999 515.007 374.385C509.241 372.596 507.925 367.497 507.62 361.657C507.044 350.666 510.112 337.14 508.985 327.459C508.138 320.184 505.235 314.706 499.021 312.16C488.641 307.951 473.506 311.657 457.43 319.816C444.245 326.507 430.321 335.985 417.918 345.21C400.443 358.207 386.027 370.709 381.694 374.704C380.49 375.807 380.409 377.681 381.512 378.885C382.616 380.089 384.489 380.17 385.693 379.067Z" fill="white"/>
</g>
<g filter="url(#filter1_d_1_3)">
<rect x="4" width="1152" height="768" fill="#0E0E0E"/>
</g>
<path d="M184.156 72C184.264 73.5177 183.312 74.989 182.36 76.1203C177.871 80.7451 170.671 82.6757 164.559 83.9417C164.395 83.9758 164.232 84.0099 164.064 84.0451C162.21 84.431 160.351 84.7903 158.485 85.1174C158.341 85.1428 158.197 85.1681 158.048 85.1942C156.847 85.4006 155.641 85.5726 154.433 85.7411C157.051 85.7507 159.669 85.7517 162.288 85.7438C162.958 85.7418 163.629 85.7412 164.299 85.7435C168.359 85.7551 172.266 85.2106 176.26 84.5006C176.6 84.4403 176.94 84.3812 177.28 84.3224C185.095 82.9632 193.047 81.0567 200.136 77.4059C200.518 77.2197 200.908 77.0616 201.304 76.9075C200.471 79.7456 198.374 81.8525 196.078 83.6145C195.944 83.7198 195.944 83.7198 195.806 83.8273C194.195 85.0856 192.505 86.1148 190.689 87.0498C190.576 87.1082 190.462 87.1666 190.346 87.2267C184.908 89.9917 178.926 91.065 173.01 92.3019C171.783 92.5588 170.557 92.8196 169.335 93.0995C164.698 94.1529 159.969 94.841 155.25 95.3926C155.818 95.9616 158.153 95.6191 158.975 95.6192C169.274 95.5669 180.068 94.4549 190.158 92.4685C190.374 92.4268 190.59 92.3852 190.806 92.3436C191.14 92.2794 191.474 92.2151 191.808 92.1504C192.599 91.9972 193.391 91.8497 194.184 91.7049C198.399 90.9337 202.528 90.0632 206.498 88.407C206.993 88.2058 207.491 88.0313 208 87.8677C207.322 90.5438 205.191 92.5221 202.891 93.9005C198.2 96.6142 192.902 97.9786 187.586 98.8279C187.367 98.8638 187.149 98.8998 186.931 98.9359C178.305 100.35 168.935 100.756 160.312 99.1551C162.416 99.7523 164.513 100.101 166.682 100.341C166.803 100.355 166.925 100.368 167.05 100.382C167.852 100.47 168.654 100.554 169.458 100.627C169.608 100.642 169.759 100.656 169.914 100.671C171.421 100.802 172.923 100.82 174.435 100.824C174.71 100.825 174.984 100.826 175.259 100.828C176.136 100.831 177.012 100.832 177.889 100.832C178.038 100.832 178.187 100.832 178.34 100.832C184.35 100.835 190.311 100.727 196.241 99.6458C196.499 99.6009 196.499 99.6009 196.762 99.5551C198.903 99.1774 200.832 98.6738 202.774 97.6828C202.882 97.6288 202.99 97.5748 203.101 97.5192C202.839 98.3565 202.333 98.971 201.794 99.6458C201.716 99.7487 201.637 99.8516 201.556 99.9576C198.098 104.238 191.918 106.525 186.739 107.641C186.596 107.672 186.453 107.704 186.305 107.736C183.43 108.309 180.504 108.372 177.583 108.357C177.415 108.356 177.248 108.356 177.075 108.355C173.801 108.345 170.577 108.239 167.357 107.594C166.851 107.483 166.851 107.483 166.355 107.498C167.851 108.253 169.35 108.788 170.979 109.185C171.137 109.224 171.295 109.264 171.459 109.305C174.045 109.905 176.673 110.01 179.318 109.993C179.457 109.992 179.595 109.991 179.738 109.991C183.59 109.973 187.636 109.832 191.171 108.123C191.281 108.079 191.392 108.034 191.505 107.989C191.613 108.043 191.721 108.097 191.832 108.152C187.909 112.465 181.17 115.075 175.434 115.37C172.203 115.467 172.203 115.467 170.625 114.967C170.258 114.835 170.258 114.835 169.785 114.859C172.794 116.573 176.422 116.091 179.747 115.841C178.619 117.271 177.211 118.084 175.541 118.755C175.431 118.8 175.32 118.845 175.206 118.892C173.063 119.705 170.838 119.856 168.57 119.838C168.443 119.838 168.317 119.838 168.186 119.837C165.897 119.829 163.699 119.581 161.456 119.112C161.146 119.05 160.837 118.989 160.528 118.927C160.293 118.88 160.058 118.833 159.822 118.785C161.085 119.641 162.402 119.891 163.872 120.182C164.432 120.299 164.985 120.442 165.538 120.585C165.003 120.942 164.554 121.076 163.936 121.249C163.74 121.305 163.543 121.361 163.341 121.419C162.443 121.648 161.603 121.75 160.677 121.758C156.649 121.824 153.128 122.184 149.86 124.838C149.698 124.965 149.537 125.092 149.37 125.223C147.453 126.918 145.983 129.799 145.778 132.363C145.565 136.582 146.862 140.707 148.768 144.427C148.838 144.564 148.907 144.702 148.979 144.843C150.058 146.888 151.528 148.502 153.16 150.109C153.465 150.409 153.768 150.712 154.071 151.014C155.035 151.974 156.006 152.914 157.046 153.792C157.231 153.953 157.415 154.115 157.599 154.276C158.85 155.363 160.132 156.395 161.456 157.391C161.715 157.588 161.975 157.784 162.235 157.981C162.935 158.51 163.637 159.036 164.341 159.56C164.672 159.808 165.002 160.058 165.33 160.308C170.069 163.871 176.189 166.165 181.87 167.697C182.027 167.741 182.184 167.784 182.345 167.829C183.083 167.999 183.817 168.038 184.573 168.042C184.737 168.043 184.901 168.044 185.07 168.045C185.8 168.044 186.53 168.037 187.259 168.024C187.112 168.495 187.014 168.779 186.618 169.084C184.776 169.971 182.914 170.234 180.89 170.314C180.714 170.322 180.539 170.329 180.358 170.336C179.066 170.388 177.773 170.434 176.48 170.478C179.282 171.63 181.91 172.663 184.973 172.768C184.532 173.063 184.322 173.158 183.826 173.265C183.7 173.292 183.573 173.32 183.443 173.349C183.311 173.376 183.179 173.404 183.044 173.433C182.914 173.461 182.784 173.489 182.65 173.519C181.09 173.856 179.595 173.958 178.001 173.964C177.817 173.965 177.817 173.965 177.628 173.966C175.954 173.97 174.348 173.867 172.694 173.586C169.001 172.974 166.059 173.367 162.502 174.41C161.754 174.622 161.002 174.798 160.241 174.956C160.132 174.979 160.024 175.003 159.912 175.027C159.557 175.099 159.2 175.161 158.843 175.222C158.683 175.252 158.524 175.282 158.359 175.313C157.022 175.534 155.741 175.561 154.389 175.529C154.121 175.524 154.121 175.524 153.847 175.518C153.102 175.502 152.356 175.484 151.611 175.456C149.175 175.252 149.175 175.252 147.066 176.23C146.849 176.489 146.636 176.753 146.431 177.021C146.117 177.295 146.117 177.295 145.809 177.526C145.712 177.599 145.615 177.673 145.516 177.749C145.417 177.823 145.318 177.896 145.216 177.972C145.053 178.094 145.053 178.094 144.888 178.218C144.012 178.861 143.111 179.463 142.195 180.048C142.069 180.128 141.944 180.209 141.815 180.292C140.631 181.033 139.465 181.598 138.092 181.888C137.908 181.928 137.724 181.967 137.535 182.008C137.33 182.05 137.33 182.05 137.122 182.092C137.337 182.362 137.553 182.632 137.775 182.91C134.687 183.03 131.655 182.781 128.583 182.489C126.849 182.326 125.146 182.207 123.404 182.256C123.287 182.534 123.287 182.534 123.169 182.818C122.22 184.683 119.981 186.312 118.014 187C118.077 186.923 118.141 186.845 118.206 186.765C118.981 185.779 119.728 184.771 119.668 183.462C119.509 182.62 119.184 182.12 118.504 181.602C116.577 180.399 114.116 179.293 111.808 179.639C110.716 179.931 109.957 180.477 109.359 181.438C108.906 182.341 108.629 183.213 108.542 184.219C107.76 183.368 107.828 182.184 107.845 181.083C107.984 179.616 108.755 178.466 109.849 177.512C111.741 176.26 114.101 176.058 116.303 176.438C116.883 176.562 117.458 176.704 118.034 176.846C121.985 177.811 127.11 178.85 130.916 176.858C132.666 175.723 133.677 174.232 134.346 172.277C134.178 172.251 134.178 172.251 134.006 172.224C130.329 171.377 126.63 168.833 123.567 166.715C123.406 166.605 123.406 166.605 123.243 166.493C120.54 164.625 118.017 162.518 115.564 160.336C115.391 160.182 115.391 160.182 115.214 160.025C112.857 157.918 110.602 155.712 108.379 153.465C107.882 152.964 107.386 152.463 106.888 151.962C106.778 151.851 106.668 151.739 106.555 151.624C105.919 150.983 105.264 150.375 104.579 149.787C104.193 149.45 103.836 149.088 103.479 148.721C102.913 148.148 102.336 147.604 101.724 147.08C101.342 146.745 100.971 146.401 100.6 146.054C99.7086 145.22 98.8004 144.425 97.8488 143.66C97.4748 143.354 97.1185 143.037 96.763 142.709C93.4147 139.698 89.34 136.261 84.688 136.258C84.5134 136.256 84.3388 136.254 84.1588 136.252C82.9456 136.25 81.8044 136.378 80.6154 136.616C80.4152 136.655 80.215 136.694 80.0087 136.734C77.4621 137.352 74.9533 138.525 72.9396 140.215C72.7631 140.352 72.7631 140.352 72.583 140.493C71.7016 141.209 71.1123 142.054 70.4899 142.996C70.3282 143.215 70.1655 143.434 70 143.65C70.0888 142.789 70.299 142.06 70.6533 141.268C70.7038 141.154 70.7544 141.041 70.8066 140.924C73.0095 136.133 77.0706 132.951 81.5085 130.339C81.6347 130.264 81.7609 130.19 81.8909 130.113C82.1134 129.986 82.339 129.864 82.5685 129.75C83.4011 129.329 83.7863 128.794 84.2695 128.028C84.4249 127.792 84.5805 127.556 84.7365 127.321C84.8126 127.205 84.8887 127.089 84.9671 126.969C87.4789 123.195 90.8916 119.989 95.4323 119.006C97.2063 118.652 98.9384 118.503 100.745 118.451C101.549 118.428 102.352 118.395 103.155 118.364C103.39 118.355 103.39 118.355 103.63 118.347C109.374 118.325 109.374 118.325 114.544 116.239C115.258 115.464 115.314 114.842 115.285 113.809C115.119 111.733 114.221 109.727 113.484 107.802C109.966 98.5897 109.966 98.5897 111.15 95.4226C111.815 94.0114 112.695 92.9184 113.768 91.7937C113.861 91.6866 113.954 91.5795 114.049 91.4691C116.712 88.5286 120.92 86.9069 124.547 85.5775C124.661 85.5354 124.775 85.4932 124.892 85.4498C131.908 82.8873 139.611 82.0068 147.025 81.607C152.875 81.2756 158.73 80.1774 164.395 78.707C164.69 78.6317 164.986 78.5565 165.281 78.4814C167.915 77.803 170.512 77.0145 173.092 76.151C173.217 76.109 173.343 76.067 173.472 76.0238C176.813 74.9049 180.124 73.7096 183.321 72.223C183.83 72 183.83 72 184.156 72Z" fill="white"/>
<rect x="85" y="503" width="257" height="56" rx="13" fill="#D9D9D9"/>
<path d="M409 364C407.895 364 407 364.895 407 366C407 367.105 407.895 368 409 368L409 364ZM593.414 367.414C594.195 366.633 594.195 365.367 593.414 364.586L580.686 351.858C579.905 351.077 578.639 351.077 577.858 351.858C577.077 352.639 577.077 353.905 577.858 354.686L589.172 366L577.858 377.314C577.077 378.095 577.077 379.361 577.858 380.142C578.639 380.923 579.905 380.923 580.686 380.142L593.414 367.414ZM409 368L592 368L592 364L409 364L409 368Z" fill="white"/>
<path d="M988.63 86.326C988.556 85.6409 988.313 85.0516 987.901 84.558C987.495 84.0645 986.954 83.6888 986.276 83.4309C985.606 83.1657 984.84 83.0331 983.978 83.0331C983.072 83.0331 982.276 83.1768 981.591 83.4641C980.906 83.7514 980.376 84.1492 980 84.6575C979.632 85.1584 979.448 85.7293 979.448 86.3702C979.44 87.3278 979.827 88.0681 980.608 88.5912C981.396 89.1068 982.379 89.5083 983.558 89.7956L985.757 90.3702C987.591 90.8195 989.134 91.5378 990.387 92.5249C991.639 93.5046 992.265 94.9079 992.265 96.7348C992.265 98.0239 991.934 99.1694 991.271 100.171C990.608 101.173 989.643 101.958 988.376 102.525C987.116 103.092 985.617 103.376 983.878 103.376C982.199 103.376 980.737 103.11 979.492 102.58C978.247 102.042 977.271 101.276 976.564 100.282C975.864 99.2799 975.477 98.0976 975.403 96.7348H978.851C978.917 97.523 979.179 98.1897 979.635 98.7348C980.092 99.2799 980.685 99.6888 981.414 99.9613C982.151 100.227 982.969 100.359 983.867 100.359C984.825 100.359 985.68 100.208 986.431 99.9061C987.19 99.5967 987.783 99.1657 988.21 98.6133C988.645 98.0608 988.862 97.4236 988.862 96.7017C988.862 96.0681 988.681 95.5378 988.32 95.1105C987.959 94.6832 987.473 94.3333 986.862 94.0608C986.25 93.7808 985.488 93.5193 984.575 93.2762L981.912 92.558C980.011 92.0424 978.552 91.2983 977.536 90.326C976.519 89.3462 976.011 88.0939 976.011 86.5691C976.011 85.2873 976.361 84.1529 977.061 83.1657C977.761 82.1786 978.722 81.4162 979.945 80.8785C981.168 80.3333 982.538 80.0608 984.055 80.0608C985.565 80.0608 986.913 80.3296 988.099 80.8674C989.285 81.4052 990.217 82.1492 990.895 83.0994C991.573 84.0497 991.926 85.1252 991.956 86.326H988.63ZM994.839 80.3702H1012.37V83.3315H1005.34V103H1001.9V83.3315H994.839V80.3702ZM1011.46 103L1019.59 80.3702H1023.58L1031.71 103H1028.06L1025.99 97.0221H1017.17L1015.11 103H1011.46ZM1025 94.1381L1021.67 84.5028H1021.49L1018.17 94.1381H1025ZM1034.58 80.3702H1042.89C1044.44 80.3702 1045.75 80.628 1046.82 81.1436C1047.9 81.6519 1048.7 82.3554 1049.23 83.2541C1049.76 84.1455 1050.03 85.1657 1050.03 86.3149C1050.03 87.6409 1049.68 88.698 1048.98 89.4862C1048.28 90.267 1047.35 90.8011 1046.2 91.0884V91.3094C1046.98 91.3536 1047.74 91.6041 1048.46 92.0608C1049.18 92.5175 1049.77 93.1621 1050.23 93.9945C1050.68 94.8269 1050.91 95.7993 1050.91 96.9116C1050.91 98.0976 1050.63 99.1473 1050.07 100.061C1049.52 100.974 1048.67 101.692 1047.53 102.215C1046.39 102.738 1044.97 103 1043.26 103H1034.58V80.3702ZM1042.93 100.05C1044.49 100.05 1045.64 99.7514 1046.38 99.1547C1047.12 98.5506 1047.5 97.7477 1047.5 96.7459C1047.5 96.0239 1047.31 95.3646 1046.94 94.768C1046.58 94.1713 1046.06 93.6998 1045.39 93.3536C1044.72 93.0074 1043.94 92.8343 1043.05 92.8343H1038.02V100.05H1042.93ZM1042.58 90.1492C1043.35 90.1492 1044.04 90.0018 1044.66 89.7072C1045.28 89.4125 1045.76 88.9963 1046.12 88.4586C1046.47 87.9208 1046.65 87.2947 1046.65 86.5801C1046.65 85.9466 1046.5 85.3831 1046.2 84.8895C1045.91 84.3959 1045.46 84.0092 1044.87 83.7293C1044.27 83.4494 1043.54 83.3094 1042.67 83.3094H1038.02V90.1492H1042.58ZM1054.58 80.3702H1058.02V100.039H1068.26V103H1054.58V80.3702ZM1071.77 80.3702H1085.98V83.3315H1075.2V90.1934H1085.24V93.1436H1075.2V100.039H1086.1V103H1071.77V80.3702Z" fill="url(#paint0_radial_1_3)"/>
</g>
<defs>
<filter id="filter0_d_1_3" x="0" y="0" width="1160" height="776" filterUnits="userSpaceOnUse" color-interpolation-filters="sRGB">
<feFlood flood-opacity="0" result="BackgroundImageFix"/>
<feColorMatrix in="SourceAlpha" type="matrix" values="0 0 0 0 0 0 0 0 0 0 0 0 0 0 0 0 0 0 127 0" result="hardAlpha"/>
<feOffset dy="4"/>
<feGaussianBlur stdDeviation="2"/>
<feComposite in2="hardAlpha" operator="out"/>
<feColorMatrix type="matrix" values="0 0 0 0 0 0 0 0 0 0 0 0 0 0 0 0 0 0 0.25 0"/>
<feBlend mode="normal" in2="BackgroundImageFix" result="effect1_dropShadow_1_3"/>
<feBlend mode="normal" in="SourceGraphic" in2="effect1_dropShadow_1_3" result="shape"/>
</filter>
<filter id="filter1_d_1_3" x="0" y="0" width="1160" height="776" filterUnits="userSpaceOnUse" color-interpolation-filters="sRGB">
<feFlood flood-opacity="0" result="BackgroundImageFix"/>
<feColorMatrix in="SourceAlpha" type="matrix" values="0 0 0 0 0 0 0 0 0 0 0 0 0 0 0 0 0 0 127 0" result="hardAlpha"/>
<feOffset dy="4"/>
<feGaussianBlur stdDeviation="2"/>
<feComposite in2="hardAlpha" operator="out"/>
<feColorMatrix type="matrix" values="0 0 0 0 0 0 0 0 0 0 0 0 0 0 0 0 0 0 0.25 0"/>
<feBlend mode="normal" in2="BackgroundImageFix" result="effect1_dropShadow_1_3"/>
<feBlend mode="normal" in="SourceGraphic" in2="effect1_dropShadow_1_3" result="shape"/>
</filter>
<radialGradient id="paint0_radial_1_3" cx="0" cy="0" r="1" gradientUnits="userSpaceOnUse" gradientTransform="translate(1088 80) rotate(168.032) scale(110.911 332.733)">
<stop stop-color="#3DC5FF"/>
<stop offset="1" stop-color="#587EB7"/>
</radialGradient>
<clipPath id="clip0_1_3">
<rect width="1152" height="768" fill="white" transform="translate(4)"/>
</clipPath>
</defs>
</svg>
